<svg xmlns="http://www.w3.org/2000/svg" width="112" height="123" viewBox="0 0 112 123">
    <g fill="none" fill-rule="evenodd">
        <g>
            <g>
                <g>
                    <path fill="#EEECE4" d="M.041 21.4c-.032.327-.032.656 0 .983 1.006 12.597 2.064 26.87 5.11 40.962.12 1.035 1.5 3.01 2.322 3.72 8.384 7.07 18.738 13.049 27.951 17.045 1.718.723 3.658.723 5.376 0 9.543-3.989 20.295-10.016 28.86-17.137.802-.7 2.164-2.679 2.272-3.72 2.653-14.068 3.444-28.277 4.258-40.963.018-.183.024-.367.019-.551-.046-1.15-.425-2.264-1.092-3.207-.236-.33-.52-.624-.844-.87-9.45-7.334-22.808-13.395-33.36-17.216-1.227-.58-4.363-.58-5.59 0-10.568 3.814-23.93 9.893-33.38 17.23-.252.189-.48.408-.679.651C.572 19.217.15 20.282.045 21.4" transform="translate(-664 -60) translate(664.155 60) translate(16.966)"/>
                    <path fill="#F0D0AD" d="M24.688 34.18c-.012.148-.012.296 0 .443.375 5.681.75 12.118 1.815 18.472.142.614.424 1.187.826 1.675 2.897 3.048 6.247 5.64 9.933 7.686.594.326 1.316.326 1.91 0 3.805-2.028 7.265-4.636 10.256-7.727.396-.49.673-1.062.81-1.675.942-6.343 1.223-12.753 1.5-18.476.005-.083.005-.166 0-.249-.007-.505-.136-1-.374-1.447-.084-.137-.186-.263-.304-.372-3.376-3.308-8.103-6.046-11.854-7.765-.636-.261-1.35-.261-1.985 0-3.751 1.719-8.504 4.465-11.862 7.772-.091.088-.172.187-.24.294-.253.422-.402.898-.435 1.388" transform="translate(-664 -60) translate(664.155 60) translate(16.966)"/>
                    <path fill="#000" fill-rule="nonzero" d="M71.82 20.623c-.245-.34-.54-.64-.874-.893-3.376-2.627-13.096-9.402-30.079-15.533-1.26-.596-4.22-.603-5.443-.019C18.378 10.34 8.666 17.125 5.278 19.73c-.262.195-.499.421-.705.673-.685.888-1.102 1.952-1.2 3.066-.033.325-.033.653 0 .978l.108 1.38c.867 10.928 1.853 23.295 4.48 35.446.127 1.116 1.466 2.976 2.273 3.683 6.929 5.834 16.13 11.445 25.243 15.396 1.678.707 3.574.707 5.252 0 9.513-3.977 19.019-9.621 26.083-15.489.795-.692 2.108-2.574 2.22-3.642 2.251-11.906 3.002-24.057 3.7-34.772l.135-2.09c.011-.188.011-.376 0-.563-.047-1.14-.424-2.243-1.085-3.177m0 3.218c.01.147.01.293 0 .44l-.135 2.109c-.679 10.689-1.451 22.8-3.691 34.682-.086.778-1.22 2.43-1.853 2.977-6.974 5.796-16.382 11.38-25.81 15.32-1.402.586-2.983.586-4.385 0-9.026-3.91-18.13-9.46-24.98-15.227-.65-.555-1.812-2.232-1.906-3.036-2.626-12.114-3.601-24.466-4.468-35.345l-.109-1.388c-.026-.258-.026-.519 0-.777.085-.9.424-1.758.98-2.474.152-.186.327-.352.52-.495C9.293 18.018 18.9 11.322 35.842 5.2c.721-.253 1.485-.366 2.25-.335.801-.025 1.6.101 2.352.372 16.882 6.098 26.489 12.795 29.835 15.392.25.188.472.41.657.662.54.766.845 1.67.877 2.605" transform="translate(-664 -60) translate(664.155 60) translate(16.966)"/>
                    <path fill="#513E2F" d="M36.891 18.643c3.895.167 7.59 1.757 10.372 4.465.052.063.136.092.216.073.08-.02.142-.082.16-.162.132-.433.154-.892.063-1.336-.021-.082.01-.169.077-.22.05-.04.115-.053.176-.04l.059.022-.004-.03c1.677.949 6.752 5.209 4.127 21.58 0 0-.04.407-.098.86l-.036.274-.039.268c-.11.94-.48 3.972-.925 7.022l-.118.795c-.436 2.905-.924 5.662-1.302 6.455-1.215 2.54-3.886 4.115-5.627 5.61-1.74 1.496-2.626.841-5.732.841-3.106 0-3.849.376-5.514-1.045-1.666-1.422-4.978-4.108-5.886-5.455-.62-.919-1.2-4.795-1.4-6.533-.303-2.623-1.432-11.21-1.523-11.924-.28-2.21-1.297-8.65.252-12.296.03-.084.11-.14.2-.14.09 0 .17.056.201.14.048.143.103.283.165.42.037.072.112.116.193.116.08-.001.154-.047.19-.12.194-.694.748-1.936 2.335-3.488l.223-.214.156-.176c.703-.842 1.075-1.91 1.041-3.008-.012-.093.04-.183.126-.22.087-.039.188-.016.25.056.477.551.763 1.24.817 1.964.007.102.085.184.187.196.101.013.197-.047.23-.144.51-1.345.388-2.846-.334-4.092-.036-.06-.039-.135-.008-.199.03-.063.091-.107.161-.117.796-.112 3.058-.25 6.498.937.084.029.177.003.233-.065.057-.068.065-.163.022-.24-.1-.165-.216-.318-.35-.457-.071-.061-.094-.162-.056-.248.038-.085.128-.136.222-.125zm.33 35.993c-2.633.223-4.622.305-4.622 1.525 0 1.346 2.422 3.328 5.463 3.437l.262.005v.018c3.166 0 5.728-2.061 5.728-3.445 0-1.246-2.074-1.347-4.794-1.54-.304-.038-1.662-.03-2.037 0zm-2.682 1.27l.037.01v.03c1.138.515 2.378.77 3.628.743 1.354-.006 2.694-.266 3.95-.766.05-.018.107-.003.141.038.035.04.04.098.013.144-.379.577-1.49 1.86-4.104 1.86-2.615 0-3.523-1.298-3.796-1.882-.022-.048-.012-.104.026-.142.037-.037.094-.047.142-.025zm-6.794-23.591l-.124.001c-1.252.08-.932 1.072-.577 2l.092.239c.122.316.231.614.264.853.135.986-1.077.837-1.85 2.697-.618 1.489-.528 3.293-.213 5.953.12.768.299 1.793.498 2.836l.11.569c.354 1.798.745 3.517.967 3.917.447.863 3.084 2.92 4.164 2.92 1.08 0 1.04-.498 2.139-1.301 1.74-1.273 2.573-.186 5.03-.186 2.457 0 3.29-1.087 5.03.186 1.1.803 1.059 1.302 2.14 1.302 1.038 0 3.329-1.668 4.08-2.79l.083-.13-.007.018c.041-.071.082-.144.122-.222l.048-.096c.441-.911.848-2.653 1.596-10.323.41-4.144-3.17-8.382-4.126-7.385-.957.997-1.07 2.846-6.164 2.928-4.872.078-11.063-3.744-13.165-3.976l-.137-.01zM38.25 45.383c.023 0 .041.018.041.04 0 .008-.72 3.982-.72 4.785 0 .648.683.997 1.032 1.269.028.023.038.061.024.095-.014.033-.048.054-.084.05-.608-.052-2.007-.208-2.082-.618-.087-.46 1.421-4.68 1.748-5.58 0-.023.018-.041.04-.041zm8.646-1.986l.256.144.015.015c.03.019.004.052-.026.052-.662-.182-1.34-.293-2.026-.331v.074c0 .627-.512 1.135-1.144 1.135-.632 0-1.144-.508-1.144-1.135-.385.143-.76.308-1.126.495-.012.007-.028.004-.037-.007-.009-.01-.009-.026 0-.037.346-.427.784-.77 1.283-1.005 1.35-.254 2.743-.04 3.95.6zm-13.594-.6c.498.235.937.578 1.283 1.005.008.01.008.026 0 .037-.01.01-.025.014-.038.007-.365-.187-.74-.352-1.125-.495 0 .627-.512 1.135-1.144 1.135-.632 0-1.144-.508-1.144-1.135-.002-.024-.002-.05 0-.074-.686.038-1.365.149-2.026.331-.034 0-.056-.033-.026-.052l.015-.015c1.262-.751 2.759-1.016 4.205-.744zm15.268-1.93c.097.059.255.174.139.193-.117.018-1.692-.44-3.189-.287l.004-.015c-1.658.171-3.376.744-3.845.644h-.053c-.604-.238-1.069-.536-.833-.715.3-.245 2.908-.8 4.277-.825.311-.027 2.652.48 3.5 1.004zm-17.395-1.005c1.37.026 3.976.58 4.276.825.221.167-.17.438-.714.666l-.118.049h-.053c-.446.095-2.026-.42-3.608-.617l-.237-.027.004.015c-1.497-.152-3.073.305-3.189.287-.116-.02.041-.134.139-.194.848-.525 3.189-1.03 3.5-1.004z" transform="translate(-664 -60) translate(664.155 60) translate(16.966)"/>
                </g>
                <path fill="#1D2924" d="M53.702 97.88c2.457-.903 3.197-.939 5.056-.69 1.894.252 2.722 1.42 2.99 1.91.094.172.075.375-.054.587-.331.543-1.3 1.04-2.033 1.043h-.032l-.01-.03c-.183-.575-.913-1.057-.998-1.085l-.012-.005c-.995-.552-2.244-.402-3.011-.105-2.985 1.134-8.695 6.495-10.017 7.967-.133.144-.334.349-.566.587-1.203 1.228-3.44 3.514-3.659 4.937-.17 1.12-.139 1.685.113 2.018.241.317.704.437 1.423.538 1.3.182 2.429-.341 3.336-.762.11-.05.215-.1.319-.146.97-.438 2.978-1.44 3.276-1.67 1.036-1.798 2.148-2.802 2.883-3.466.248-.224.462-.417.622-.592 1.182-1.078 2.864-2.382 3.655-2.683 1.02-.387 1.622-.197 1.82-.135.492.155.854.478 1.018.907.173.454.114.989-.16 1.432-.178.285-.359.55-.615.64-.042.034-.11.047-.182.034-.117-.02-.214-.103-.266-.226l-.01-.018.01-.02c.16-.298.184-.712.062-1.027-.054-.137-.157-.315-.351-.388-1.142-.205-4.412 3.18-5.245 4.238l-.022.029c-1.046 1.323-1.872 2.368-.981 3.067.59.464 2.673-.858 3.81-1.71 1.075-.766 2.862-2.92 3.384-3.562.122-.15.24-.322.365-.502.133-.194.272-.395.43-.593.35-.435.728-.485 1.189-.156l.01.009c.225.297.408.907.29 1.148-.061.128-.26.393-.512.728-.183.241-.389.515-.592.801l-.154.213c-.543.747-2.197 3.021-1.995 3.576.02.052.055.084.112.1h.014c.503 0 4.857-4.147 6.961-6.15.927-.884 1.595-1.521 1.781-1.67.203-.163.645-.247 1.032-.195.175.023.408.086.525.248.32.446.184 1.072-.116 1.46-.566.73-2.525 3.863-3.01 4.646.296-.212.938-.68 1.7-1.236l1.214-.884.626-.456c.556-.403 1.099-.795 1.574-1.136l.343-.245c.602-.429 1.05-.74 1.197-.822.282-.157.524-.292.917-.137.2.079.335.227.39.428.107.387-.087.864-.326 1.166-.114.143-.421.547-.798 1.048l-.294.392-.31.413-.312.42c-.517.696-1 1.356-1.212 1.661.223-.162.607-.455 1.088-.82 1.8-1.372 4.814-3.666 5.677-3.986.509-.188.909-.156 1.128.09.495.955-.436 2.157-.835 2.67l-.138.18c-.425.557-1.721 2.249-1.774 3.187-.001.013 0 .018.002.02.004.003.036.015.186-.06.013-.005.02-.01.025-.011.07-.044 1.056-1 2.197-2.107l1.17-1.135.395-.382c1.51-1.46 2.932-2.817 3.252-3.04.794-.558 1.42-.753 1.806-.565.13.062.221.168.271.315.082.24.035.535-.013.705.485-.286 1.31-.602 1.817-.798.175-.067.313-.12.387-.152l.01-.003c1.134-.189 1.851.111 2.253.396.47.331.685.755.73 1.04.089.558.047 1.352-.1 1.943.074.076.147.109.245.152.054.024.114.05.184.09l.062-.109c1.044-1.83 2.103-3.14 3.145-3.897 1.881-1.603 4.266-1.261 5.067-.733.453.348.742.94.815 1.667.028.403-.304 2.16-2.435 3.417-1.62.916-3.294 1.53-4.591 1.687-.002 0-.043.011-.127.135-.239.351-.521 1.151-.421 1.606.012.059.053.095.127.113 1.086.271 7.35-3.553 9.057-5.526.338-.322.684-.98.99-1.56.276-.526.515-.98.712-1.133.498-.385 1.343-.221 1.802-.09.2.057.476.195.798.354.75.372 1.778.882 2.83.902 1.54.03 3.206-.23 3.221-.232.108-.02.258.072.325.146.022.024.046.068.026.132-.141.469-2.762 1.647-3.066 1.729-.855.23-2.542.18-3.481-.019-.779-.163-1.44-.34-1.6-.385-.149.293-1.249 2.452-1.742 3.359-.486.821-1.654 3.47-1.731 3.72-.068.211-.343.505-.735.502-.342.058-.874.023-1.344-.007l-.377-.022c-.068-.003-.136-.091-.17-.144-.024-.038-.103-.17-.07-.25.15-.37 1.91-3.636 2.417-4.499l-.336.247c-1.522 1.125-6.153 4.55-8.31 4.592h-.022c-.386 0-1.102-.213-1.537-.704-.313-.354-.43-.784-.347-1.278.13-.703.355-1.687.522-2.36-.053-.026-.21-.072-.308-.1-.098-.029-.157-.047-.194-.06-2.429 3.005-7.552 4.377-9.46 3.99-.396.613-4.118 5.68-4.626 6.132l-.018.015-.022-.005c-.624-.12-.816-.625-.79-1.021.033-.508 1.314-2.398 2.67-4.4l.585-.865c.29-.432.574-.855.828-1.246.9-1.38 1.832-2.588 2.246-3.126-.23.203-.57.504-.956.848-1.445 1.286-3.629 3.228-4.084 3.505-.738.448-1.051.486-1.745.381-.1-.016-.794-.334-.794-1.185 0-.89.902-2.409 1.387-3.225.072-.12.135-.227.186-.317h-.001l-.089.075c-.193.16-.456.39-.764.658l-.157.138c-1.66 1.455-4.426 3.88-5.442 3.88h-.033c-.169-.01-.34-.036-.45-.165-.09-.108-.12-.265-.091-.481.104-.784.997-2.994 1.627-4.046-.734.49-4.85 3.947-5.221 4.403-.332.405-.67.391-1.062.377l-.122-.006c-.46-.012-.772-.102-.924-.265-.079-.084-.115-.187-.109-.305.197-.94 1.777-3.354 2.721-4.797.238-.364.456-.697.59-.913-.758.706-3.187 2.817-4.865 4.276-.668.58-1.195 1.038-1.408 1.227-.346.305-.92.692-1.684.803l-.006.001c-.071-.008-.153-.011-.24-.014-.45-.014-1.13-.034-1.134-.868.007-.91.334-1.66.49-2.021l.037-.085c-1.033.944-3.318 2.903-4.543 2.968h-.01c-.88 0-1.732-.458-2.125-1.144-.18-.362-.138-1.05-.114-1.31-.541.39-3.64 2.51-6.839 2.51-.061 0-.123-.001-.184-.003-1.146-.03-2.308-.425-2.765-.939-.945-1.063-.939-2.402-.52-3.705-.584.651-2.514 2.201-2.967 2.53-.113.082-.232.179-.36.28-.39.314-.833.669-1.257.76-.912.198-1.424-.258-1.956-1.058-.286-.374-.35-1.403-.376-1.874l-.187.194c-.703.728-2.346 2.44-3.081 2.363-.513-.042-1.035-.468-1.24-1.015-.108-.29-.088-1.675.044-2.346l-.202.28c-.409.574-1.028 1.44-1.49 1.826-.368.307-1.137.805-1.63.835-.453.03-1.037-.111-1.262-.966-.123-.47.128-1.902.355-2.568-.182.195-.408.444-.66.72-1.165 1.282-2.76 3.038-3.435 3.346l-.08.037c-.332.152-.41.189-.816.151-.72-.068-.73-.515-.75-1.328-.015-.579.137-1.353.218-1.768.015-.072.028-.142.038-.197l-.065.064c-.737.733-2.983 2.962-4.087 3.286-.249.073-.523.11-.805.11-.286 0-.58-.038-.858-.114-.506-.186-1.438-.531-1.194-2.295.131-.779.905-2.437 1.926-3.759.582-.754 1.462-1.86 2.372-2.754 1.687-1.657 3.29-2.298 3.955-2.326.53-.021.89.037 1.398.411.239.176.404.467.452.8.064.441-.077.917-.395 1.339-.12.16-.255.165-.34.116-.112-.064-.156-.218-.104-.358.128-.338.143-.441-.012-.678-.182-.279-.458-.39-.801-.322-.833.168-1.405.714-2.129 1.406-.682.652-3.718 4.581-4.244 5.866-.094.232-.004.396.088.493.227.238.674.317.909.227 1.112-.398 3.387-2.515 4.136-3.21l.1-.094c1.053-.979 2.325-2.912 2.823-3.698.242-.382.45-.666.617-.894.113-.155.204-.278.264-.377.092-.16.2-.259.322-.291.101-.027.21-.007.32.06.548.326.577.88.534 1.38-.033.381-.883 1.786-1.504 2.812-.251.415-.468.773-.552.936-.07.134-.236.406-.43.72-.384.626-1.098 1.791-1.037 1.93.228.142.935-.488 1.494-1.039l.229-.229.286-.292.104-.107c.54-.556 2.616-3.332 3.013-3.926.622-.93 1.793-2.526 1.982-2.782.099-.11.202-.166.305-.16.213.004.4.23.579.447.073.09.143.173.213.242.3.326-.239 1.25-.671 1.994-.087.148-.165.284-.227.396-.78 1.304-2.126 4.19-1.816 4.837.034.07.088.11.165.118l.013.001c.499 0 2.564-2.934 3.68-4.516.754-1.073 1.047-1.482 1.129-1.516.406-.173.752-.08 1.027.273.398.449.069 1.148-.345 1.837-1.117 1.93-2.16 4.358-1.417 4.85.352.184 2.376-1.88 2.746-2.336.325-.4 1.738-2.741 2.152-3.475 1.61-2.827 3.331-5.098 5.264-6.942 1.349-1.289 4.96-3.508 5.647-2.847.637.463.114 1.622-.483 2.695l-.097.164c-.708 1.152-2.694 3.417-3.692 4.28-1.05.993-2.184 1.764-3.012 2.327-.313.213-.582.395-.764.536-.682.528-1.636 1.497-1.97 2.1-.37.675-1.357 2.467-1.176 3.696.035.237.136.399.296.48.22.113.518.055.714-.052.864-.472 3.161-1.994 3.351-2.18.123-.12.287-.273.477-.394.078-.05.219.06.289.134.02.02.043.047.062.077.302-.807.747-1.591 1.205-2.276 3.06-4.577 9.84-10.721 13.186-11.951zm-43.909 3.391c.353-.383.893-.42 1.283-.084.265.228.35.388.471.754l.023.068c.064.18.118.337-.095.567-.647.703-1.246 1.448-1.794 2.149-.157.199-.387.5-.641.837l-.262.348c-.621.83-1.297 1.75-1.432 1.956-.296.451-.595.897-.893 1.342-.697 1.04-1.416 2.114-2.09 3.228-.92 1.528-1.586 2.952-1.696 3.444-.144.637-.29 1.004-.447 1.12l-.016.012-.02-.004c-.499-.104-.622-.467-.694-1.193-.078-.777.744-3.06 1.477-4.433.556-1.041 1.296-2.262 1.785-3.07.181-.298.324-.534.406-.675.42-.729 3.455-4.93 3.978-5.542.1-.118.195-.244.287-.366.116-.153.236-.312.37-.458zm76.935 8.484c-.98 0-2.077.63-2.861 1.646-.789.764-2.557 2.783-3.246 3.818h.027c1.49 0 5.595-2.112 6.292-2.775.517-.494 1.08-1.567.82-2.194-.135-.329-.482-.495-1.032-.495zm10.755-1.607c-.111-.106-1.7-.451-2.868.68-.37.317-1.533 1.76-1.764 2.816.954.206 3.615-.966 4.498-2.172.358-.491.404-.936.134-1.324zM17.79 96.75c3.512-.094 5.115.637 6.117 1.283.615.396 1.046 1.33.958 2.374l-.005.055c-.159 1.264-1.938 2.16-2.785 2.581l-.438.219c-1.3.649-3.468 1.717-5.274 2.38-1.876.691-5.367 1.974-6.478 2.114l-.085.012c-.082.014-.183.03-.283.03-.167 0-.328-.046-.376-.231-.115-.444.11-.547.37-.667l.127-.06.132-.073c.175-.107 2.113-.937 4.356-1.898 2.777-1.188 5.923-2.536 6.912-3.018 1.758-.856 1.733-1.156 1.682-1.755l-.002-.017c-.064-.751-.885-1.213-2.44-1.372-1.523-.154-4.597.407-5.554.616-.414.09-4.115.915-6.572 2.05-.639.297-2.07.91-3.454 1.503-1.426.611-2.773 1.188-3.212 1.4-.117.055-.224.108-.322.156-.547.27-.849.419-1.1.014-.235-.38.23-.754.537-1 2.886-1.905 7.061-3.923 7.528-4.148 3.493-1.678 6.472-2.464 9.66-2.548zm26.11 3.314c-.017 0-.045.009-.083.034-.097.063-2.385 1.84-4.256 3.713-.81.809-2.268 2.938-2.649 3.501 1.378-.686 4.412-2.935 7.007-7.103.022-.061.017-.124-.003-.14-.003-.003-.008-.005-.017-.005z" transform="translate(-664 -60) translate(664.155 60)"/>
            </g>
        </g>
    </g>
</svg>
