<svg width="208px" height="60px" viewBox="0 0 208 60" version="1.1" xmlns="http://www.w3.org/2000/svg" xmlns:xlink="http://www.w3.org/1999/xlink">
  <!-- Generator: Sketch 43.1 (39012) - http://www.bohemiancoding.com/sketch -->
  <desc>Created with Sketch.</desc>
  <defs></defs>
  <g id="add-camper" stroke="none" stroke-width="1" fill="none" fill-rule="evenodd">
    <g id="add-camper-web" transform="translate(-75.000000, -10.000000)">
      <g id="Logo" transform="translate(75.000000, 10.000000)">
        <path d="M207.418514,28.1041212 C207.341801,28.0189373 207.181231,27.9271025 207.082297,27.9444974 C206.997912,27.9593342 205.046739,28.2532568 203.234974,28.2123277 C201.423473,28.1716543 199.675195,26.9084778 198.904884,26.6825999 C198.134573,26.4564663 197.293632,26.3978864 196.806897,26.7744348 C196.320691,27.1507273 195.112319,28.8607992 194.353118,29.5883152 C192.145087,32.1448535 183.7251,36.0768677 183.510566,34.8090866 C183.445228,34.5305125 183.763457,33.9291095 184.002063,33.8851106 C185.790285,33.6725347 187.851502,32.7894879 189.455876,31.8798371 C191.899868,30.4345258 192.596375,27.9746827 192.55987,27.419325 C192.486331,26.6352756 192.186089,25.8906205 191.62026,25.447818 C190.70287,24.8308108 187.896737,24.3821248 185.643206,26.3086096 C183.472474,27.8864291 181.601454,31.5690312 181.576324,31.5536828 C181.309678,31.3925242 181.154928,31.3907335 180.989067,31.2050174 C181.158102,30.5575691 181.660444,30.0055369 181.548019,29.2729048 C181.435594,28.5402726 180.39652,27.1937029 178.063631,27.5774139 C177.696993,27.7372935 176.029661,28.3136273 175.311727,28.7861035 C175.390821,28.6351771 175.625988,27.7436887 175.087141,27.4789281 C174.598819,27.2389808 173.822688,27.5605306 172.987567,28.1478642 C172.152446,28.7354536 164.762274,34.8413183 164.596678,34.9126886 C164.562289,34.9275254 164.390874,35.0633591 164.26919,34.9195954 C163.87848,34.5691394 165.699239,32.2579203 166.063232,31.7764909 C166.440452,31.2781783 167.755165,29.7103353 167.153889,28.5249242 C166.908141,28.2445594 166.445478,28.2151415 165.869332,28.42695 C164.468381,28.945983 158.831778,33.0898057 158.269123,33.443843 C158.250341,33.3576359 160.780041,29.9482361 161.232123,29.37753 C161.688701,28.8009403 161.896886,27.8275935 161.185301,27.5408335 C160.744329,27.3627916 160.474244,27.512183 160.139879,27.699434 C159.398401,28.1151209 152.216414,33.4346339 151.985215,33.5658631 C152.047644,33.4407733 155.203222,28.5121338 155.944699,27.5531122 C156.295465,27.0995658 156.448893,26.3725615 156.088074,25.8601794 C155.798678,25.4490971 154.687653,25.4987237 154.31202,25.8013437 C153.501501,26.4546756 144.326281,35.5470907 143.583746,35.3964202 C142.641226,35.1395897 145.46905,31.3868964 145.997845,30.6422413 C146.580605,29.8213556 147.19114,29.0713286 147.315733,28.8157771 C147.440062,28.5602256 147.247749,27.8472906 146.978987,27.4868581 C146.408925,27.0721945 146.005517,27.2026562 145.638085,27.6600397 C145.271446,28.1174231 144.990516,28.596806 144.684454,28.9746334 C144.032653,29.7786358 141.912446,32.3408019 140.627624,33.2555688 C140.193266,33.5837696 136.921031,36.1955623 136.33351,35.6074612 C135.930102,34.8561552 136.103104,33.2228255 137.387662,31.5894958 C138.43229,30.2608326 142.149993,26.1454046 143.54486,26.4065838 C144.088733,26.6155784 144.24216,27.5605306 143.912027,28.1859795 C144.022072,28.4474146 144.286866,28.4719721 144.367019,28.3898579 C144.663557,28.294186 144.879678,27.9746827 145.084953,27.6418773 C145.674854,26.6854138 145.759239,25.1971269 144.103282,24.9039717 C143.796428,24.8617635 143.634006,24.7407666 142.533033,24.8059975 C141.50507,24.936715 138.983835,27.0161727 137.625739,28.2573497 C136.854898,29.1068858 135.085722,30.2500887 133.434262,33.1248513 C133.098309,33.3970303 129.851469,35.465744 128.651297,35.9545918 C127.451389,36.4434395 125.881934,37.1770949 123.884997,37.1755601 C121.888061,37.1737694 121.535972,36.0648447 122.31369,33.7180684 C123.426302,31.2277843 126.51998,28.2770469 127.471494,27.2346321 C128.961591,25.5706055 137.296928,19.0664488 140.945589,17.6786941 C141.614056,17.4216078 143.210758,17.0473617 144.579436,17.8216904 C144.63049,17.8245043 145.568513,18.4159308 145.801564,19.1662137 C146.981368,19.1662137 148.655577,18.057289 148.245292,17.2916577 C147.83527,16.526538 147.360439,15.4173575 145.138123,15.1372485 C142.915808,14.8571395 141.064098,14.9691831 138.734119,15.8164169 C134.677024,17.2916577 125.521908,23.7167699 121.512693,30.1175805 C118.87533,34.3245876 119.364446,36.2986526 120.530494,37.6334552 C121.086271,38.2693921 122.490396,38.8741206 123.780508,38.7574725 C129.726876,38.0949316 133.074766,34.8888985 133.074766,34.8888985 C133.074766,34.8888985 132.930068,36.0336362 133.184811,36.5547157 C133.664139,37.4057867 134.68205,37.91382 135.672979,37.91382 C137.361473,37.8288919 140.835015,34.5860226 141.21488,34.2355666 C141.241862,34.3647493 140.534245,35.465744 140.517579,36.9468683 C140.517579,38.0900712 141.621198,37.8977041 142.096029,37.9596095 C143.013419,37.8288919 143.686119,37.3594855 144.077623,37.0120992 C145.042363,36.1566795 151.396901,30.6570781 151.827026,30.1684862 C151.801102,30.4237819 148.034726,35.71004 147.694011,37.3167657 C147.66359,37.8288919 148.364859,37.9358194 148.869318,37.9521911 C149.409488,37.969586 149.820832,38.0414678 150.236937,37.5293416 C150.671824,36.9947043 156.088074,32.5789585 156.630625,32.2057356 C155.867456,33.4264481 154.526819,35.0267786 154.523644,36.0361943 C154.520734,37.0453541 154.958531,37.1722346 155.366966,37.1924434 C156.221133,37.2351632 162.277545,32.612725 163.120072,32.0427863 C162.813218,32.6521194 161.347193,35.5217658 161.362536,36.0850535 C161.379201,36.7215021 162.35029,37.0356335 162.437585,37.0497029 C163.240434,37.1758159 163.553108,37.0653071 164.481343,36.606133 C165.16145,36.150796 170.173762,32.0847387 170.440673,31.895953 C170.41713,31.9642535 168.917774,33.7950664 167.460215,36.0361943 C165.605331,38.8876784 163.679553,42.3259845 163.430366,42.8033209 C163.190966,43.3164704 164.299082,44.2639807 164.959878,44.3944424 C165.54687,43.8718281 168.628908,38.2668341 169.019089,37.6252693 C171.12607,38.0949316 177.354691,36.5669945 180.312135,32.8577884 C180.376152,32.8992292 181.022398,33.0552717 180.986422,33.1020844 C180.788289,33.8945755 180.726918,33.8674599 180.564761,34.7320886 C180.275101,36.4342305 182.079989,37.076051 182.77147,37.0645397 C185.769916,37.0138899 192.577593,32.6590262 193.056392,32.3702197 C192.773345,32.773372 190.020647,37.8861928 189.813256,38.3952493 C189.771989,38.4973165 189.956896,38.7930297 190.05001,38.79789 C190.642822,38.8270521 191.563915,38.9273285 192.097736,38.8395866 C192.520719,38.8472609 192.842123,38.5292924 192.922276,38.2755315 C193.025707,37.9470749 194.653624,34.3432615 195.219718,33.3857747 C195.859087,32.2100843 197.752856,29.7274744 197.752856,29.7274744 C197.752856,29.7274744 198.625011,29.9771423 199.695564,30.2089037 C200.765852,30.440921 202.78157,30.5250816 203.81694,30.2459958 C204.265318,30.1249989 207.782243,28.5090641 207.418514,28.1041212 M177.628479,32.7595584 C176.756324,33.5980948 171.631851,36.2400727 169.968487,36.109611 C170.726894,34.9277812 172.894452,32.4055211 173.887233,31.4349882 C174.918371,30.0868836 176.679346,29.8423318 177.763919,29.8423318 C180.077497,29.8423318 178.500106,31.9202546 177.628479,32.7595584 M184.568157,31.7982346 C184.815492,30.5332674 186.442351,28.3236038 186.90713,27.9212189 C188.318397,26.5419059 190.22751,26.9353376 190.405009,27.1123562 C191.771571,29.0905142 186.037621,32.2042008 184.568157,31.7982346 M124.927774,21.4549217 C125.671103,20.1981404 126.276083,18.9011973 125.564762,18.3803736 C124.824608,17.6646247 120.580225,20.0152381 118.812901,21.6101967 C115.753084,24.3718925 113.662504,27.5060437 112.384295,29.6182446 C111.892534,30.4388745 110.143462,33.1729431 109.736086,33.6479772 C109.362041,34.0841287 107.121737,36.1955623 106.629712,35.9346388 C105.559688,35.2211922 107.203213,32.0834597 108.09944,30.6261255 C108.657863,29.7510086 108.973182,29.0273298 108.548083,28.5466678 C108.301805,28.2266529 107.940722,28.0051237 107.383622,28.2263971 C107.090523,28.3430452 102.778685,34.4877926 102.14593,34.422306 C101.513703,34.3570751 102.50622,30.9136529 103.495032,29.3532283 C103.916164,28.6216194 105.45467,26.460815 105.05814,26.0297797 C104.680391,25.6593707 104.302907,24.8927162 103.833366,25.389494 C103.554552,25.7422522 101.717127,28.1609104 100.971153,29.2138133 C100.473836,29.9152369 97.9404335,33.1138516 97.280696,33.7541373 C96.6212229,34.3946788 95.0795426,35.942313 94.6462427,35.6693666 C94.4055205,35.534812 96.1424238,33.0670388 96.4381682,32.5316341 C96.7921092,31.8903252 98.9022643,28.8237071 98.9662805,28.2082347 C99.0302967,27.5927623 98.9805651,27.0008242 98.3766434,26.6368104 C98.086454,26.462094 97.8507579,26.5915325 97.6748455,26.8790599 C97.4920554,27.1637735 97.0971122,27.6001808 96.5942409,28.3491846 C95.7395448,29.6208027 94.3092316,31.5989607 93.1333962,32.6319106 C92.3675821,33.3051954 89.3916207,35.9574057 87.9753276,36.4291143 C87.4827729,36.6066446 86.3249255,36.2804903 86.7243657,35.5000222 C87.5314464,33.99741 90.960283,29.4755042 91.933224,28.7027103 C92.9064295,27.9296606 93.5577021,27.3625358 94.5383145,27.0837058 C94.9761115,26.9588718 95.3324332,27.1609596 95.5493478,27.4973462 C95.7427191,27.796385 95.7911281,27.9652178 95.5562255,28.3376732 C95.4390388,28.6249448 95.5937888,28.7346862 95.9601627,28.5533188 C96.7683015,27.5786929 96.5471545,26.573626 95.9723311,26.1492417 C95.3969785,25.7248573 95.3689384,25.7737165 94.7562871,25.6460687 C94.2883337,25.5483503 91.7628667,26.2799592 89.5857856,28.2900931 C88.6443237,29.2549983 87.7589421,30.2352519 86.8971037,31.254644 C85.6220696,32.7326987 84.5031081,34.8794336 84.329841,35.794968 C84.0261607,37.7214529 84.9877269,38.1785805 85.6805307,38.4397598 C86.3823285,38.6357082 87.0526473,38.7011949 87.5703323,38.4563873 C88.8781681,37.8521704 92.1572808,34.9032237 92.7786616,34.3268898 C92.8167539,34.3639819 92.3763116,36.0049858 92.4128167,36.9734723 C92.4493218,37.941703 92.446412,38.3747848 93.2415889,38.4837587 C93.8701119,38.5313388 93.7928692,38.4837587 94.2748427,38.277578 C95.3424854,37.8074041 98.3880181,34.4737232 99.4585707,33.4157042 C99.156213,33.9843639 99.1599164,35.4117687 99.3146664,36.0241714 C99.5342262,36.8918698 100.108785,37.1689091 100.75609,37.1361657 C101.3243,37.1077711 102.24698,36.5519018 102.694565,36.1991436 C103.474664,35.5841828 104.234129,34.4486541 104.482787,34.1884981 C104.257937,34.7904127 104.182546,36.7729194 104.317985,37.1412819 C104.53728,37.7378245 105.233258,37.8808208 105.853581,37.9388891 C106.862763,38.0509327 109.383468,35.640972 109.751165,35.3160967 C109.770211,35.7617131 109.808568,37.1361657 110.164889,37.6017351 C110.772779,38.5236646 111.45315,38.8124711 112.532961,38.6009184 C113.193757,38.4714799 113.816196,38.0542582 114.37356,37.6713146 C115.006845,37.236698 117.762717,35.1316596 118.133324,34.5839762 C118.198663,34.4870252 117.853186,34.1731496 117.759807,34.2291714 C117.552151,34.3537496 117.365393,34.5110711 117.191333,34.6727413 C116.942939,34.9029679 114.116173,36.6414344 113.082125,36.9532635 C112.661787,37.0801439 112.31975,36.8210111 112.343822,36.5403905 C112.40678,35.0978931 113.306447,32.8833692 113.813815,32.0169498 C114.215107,31.3313862 114.266426,30.9558611 115.000231,30.1718117 C115.883497,29.7510086 118.536732,28.1593755 120.314637,26.5692773 C121.57618,25.539397 124.18471,22.7114472 124.927774,21.4549217 M123.817013,20.780102 C123.443497,22.4344079 117.400576,28.0493784 115.444113,28.9815402 C116.437952,27.6564584 117.361954,26.4012119 118.485148,25.2086382 C120.6453,22.9153256 123.932348,20.4447386 123.60486,20.5844094 C123.824949,20.526597 123.869126,20.6442683 123.817013,20.780102 M104.019331,18.9761488 C104.028854,18.043987 104.457921,17.8198998 103.010943,16.7045799 C101.827171,15.8632297 99.5784027,14.9673924 95.3453952,15.0060193 C91.7171031,15.0392743 86.5124772,15.7053965 81.9628274,17.749297 C80.5475925,18.3852339 75.979161,20.5020395 72.727824,22.5236846 C72.3207125,22.8324441 71.8170476,23.222806 72.0664993,23.6320977 C72.3871095,24.1577818 72.7865496,23.8523478 73.7319795,23.4387074 C74.7993577,22.9557432 80.3238002,20.806706 81.9025146,20.1234446 C84.4909397,19.0035202 88.3178938,18.1337754 89.951366,17.8145278 C91.3150176,17.5477208 96.020211,16.9688289 97.79891,17.1947067 C99.8545719,17.455886 102.115244,18.2430051 102.786886,18.8968486 C102.834501,18.9431497 102.908041,19.0431704 102.898518,19.0508446 C102.581082,19.3158609 100.882006,20.0464466 98.6715942,21.0533042 C96.4614469,22.0601618 84.272438,26.3978864 83.8026329,26.6687863 C83.3322987,26.9396863 82.8897402,26.9084778 83.0455483,27.5492751 C83.1309915,27.8994753 83.6404761,27.7743855 83.8888697,27.7480374 C85.2181324,27.6065759 89.2649109,26.0118732 91.8020172,25.3692852 C94.3385944,24.7261856 98.3372284,23.108716 99.8627723,22.3968042 C100.923537,21.9013055 104.231748,20.0712599 104.019331,18.9761488 M74.8829491,32.2960356 C73.8708577,33.9344814 72.78073,36.5252979 72.8185578,37.4057867 C72.856121,38.2865312 72.9873278,38.6669167 73.5269688,38.8088898 C73.7459996,38.6669167 73.9565654,38.0949316 74.1160769,37.5452016 C74.2755885,36.9952159 75.1366333,35.3838857 76.389976,33.5745605 C77.6435832,31.7649796 78.9696716,30.1012088 80.2698361,28.3709282 C80.543889,28.0064028 82.5469095,25.6273948 83.2791282,24.8088114 C84.0190184,23.9820421 84.7684316,23.1588542 85.5763059,22.3860603 C85.8519461,22.1220672 85.762535,21.9583505 85.6905828,21.6938457 C85.572867,21.2610197 85.4900692,21.0765827 85.1956474,20.7977527 C84.7689606,20.3930655 84.148109,20.4102046 83.7298872,20.8107989 C83.4262069,21.101396 83.1812522,21.4398291 82.8889466,21.7406585 C82.2553975,22.3929671 78.3157537,27.1768197 77.7581246,28.0176583 C77.3650332,28.610108 75.894776,30.6573339 74.8829491,32.2960356" id="Fill-1" fill="#030303"></path>
        <g id="Group">
          <path d="M0.0291874736,15.1368421 C0.00609529499,15.3678548 0.00609529499,15.6005662 0.0291874736,15.8315789 C0.740300466,24.7421053 1.48856115,34.8368421 3.64312738,44.8052632 C3.72803639,45.5368421 4.70449006,46.9342105 5.28558612,47.4368421 C11.2159501,52.4368421 18.5393525,56.6657895 25.0561193,59.4921053 C26.2711162,60.0035133 27.6434542,60.0035133 28.8584511,59.4921053 C35.6087177,56.6710526 43.2133813,52.4078947 49.2711088,47.3710526 C49.8389378,46.8763158 50.8021244,45.4763158 50.8790732,44.7394737 C52.7550317,34.7894737 53.3149006,24.7394737 53.8906898,15.7657895 C53.90324,15.6363626 53.9076708,15.5062876 53.9039568,15.3763158 C53.8712288,14.5623865 53.6031983,13.7749581 53.1318155,13.1078947 C52.9646124,12.8744779 52.7634165,12.6669555 52.534799,12.4921053 C45.8508675,7.30526316 36.4020863,3.01842105 28.9380533,0.315789474 C28.0703893,-0.0947368421 25.8521413,-0.0947368421 24.9844774,0.315789474 C17.5098307,3.01315789 8.05839611,7.31315789 1.37446466,12.5026316 C1.19605935,12.6361657 1.03477523,12.7908206 0.894198053,12.9631579 C0.404642454,13.5919096 0.105548256,14.3458157 0.0318408802,15.1368421" id="Shape" fill="#EEECE4" fill-rule="nonzero"></path>
          <path d="M17.4620694,24.1763158 C17.4537728,24.2805396 17.4537728,24.3852499 17.4620694,24.4894737 C17.7274101,28.5078947 17.9927507,33.0605263 18.7463182,37.5552632 C18.8464865,37.9892705 19.0462483,38.3945128 19.3300677,38.7394737 C21.3795275,40.895807 23.7488941,42.7292069 26.3562886,44.1763158 C26.7765103,44.4067291 27.2866509,44.4067291 27.7068726,44.1763158 C30.3980495,42.7414043 32.8458803,40.8971026 34.9612865,38.7105263 C35.241305,38.3645621 35.4373985,37.9593948 35.5344223,37.5263158 C36.2004274,33.0394737 36.3994329,28.5052632 36.595785,24.4578947 C36.5989284,24.3991641 36.5989284,24.3403095 36.595785,24.2815789 C36.5899471,23.9243764 36.4990265,23.5736049 36.3304444,23.2578947 C36.2713349,23.1607977 36.1990122,23.072245 36.1155184,22.9947368 C33.7274524,20.6552632 30.38416,18.7184211 27.7307533,17.5026316 C27.2814497,17.3176875 26.7764047,17.3176875 26.3271011,17.5026316 C23.6736945,18.7184211 20.3118282,20.6605263 17.9370292,23 C17.8722956,23.0623604 17.8152875,23.1321509 17.7672112,23.2078947 C17.5879888,23.5064319 17.4825184,23.8427839 17.459416,24.1894737" id="Shape" fill="#F0D0AD" fill-rule="nonzero"></path>
          <path d="M50.799471,14.5868421 C50.6261229,14.3470633 50.4177594,14.1342054 50.1812273,13.9552632 C47.7931612,12.0973684 40.9181845,7.30526316 28.9062124,2.96842105 C28.0146678,2.54736842 25.9211299,2.54210526 25.0561193,2.95526316 C12.9990394,7.31315789 6.12936945,12.1131579 3.73334321,13.9552632 C3.54809021,14.0932543 3.38056437,14.2532156 3.23450275,14.4315789 C2.74973207,15.0598315 2.45523332,15.8119275 2.38541261,16.6 C2.36219908,16.8301274 2.36219908,17.0619779 2.38541261,17.2921053 L2.4623614,18.2684211 C3.07529835,25.9973684 3.77314431,34.7447368 5.63052899,43.3394737 C5.72074482,44.1289474 6.668011,45.4447368 7.23849344,45.9447368 C12.1393356,50.0710526 18.6481422,54.0394737 25.093267,56.8342105 C26.2801119,57.3346807 27.6211915,57.3346807 28.8080364,56.8342105 C35.5370758,54.0210526 42.2608083,50.0289474 47.2571731,45.8789474 C47.8196953,45.3894737 48.7483876,44.0578947 48.8279898,43.3026316 C50.4200339,34.8815789 50.9507152,26.2868421 51.4442488,18.7078947 L51.5397715,17.2289474 C51.5481826,17.0966226 51.5481826,16.9639037 51.5397715,16.8315789 C51.506654,16.0250426 51.2404737,15.2449455 50.7729369,14.5842105 M50.7729369,16.8605263 C50.7792713,16.9639398 50.7792713,17.0676392 50.7729369,17.1710526 L50.6774143,18.6631579 C50.1971477,26.2236842 49.6505459,34.7894737 48.0664621,43.1947368 C48.0054338,43.7447368 47.204105,44.9131579 46.7556792,45.3 C41.8229962,49.4 35.1682522,53.35 28.5002412,56.1368421 C27.5083537,56.5504686 26.3902963,56.5504686 25.3984088,56.1368421 C19.0143123,53.3710526 12.5744943,49.4447368 7.72937368,45.3657895 C7.27033432,44.9736842 6.44777825,43.7868421 6.38144308,43.2184211 C4.5240584,34.65 3.83417266,25.9131579 3.22123572,18.2184211 L3.14428692,17.2368421 C3.12566553,17.0539739 3.12566553,16.8697103 3.14428692,16.6868421 C3.20385442,16.0503482 3.44396643,15.4436012 3.83682607,14.9368421 C3.94481364,14.8056014 4.06868717,14.6880499 4.2056496,14.5868421 C6.57248836,12.7447368 13.3678629,8.00789474 25.3506475,3.67894737 C25.8612415,3.50002103 26.4016365,3.4196286 26.9426915,3.44210526 C27.5090779,3.42415138 28.0737218,3.51346542 28.6063775,3.70526316 C40.5467076,8.01842105 47.3420821,12.7552632 49.7089209,14.5921053 C49.8861537,14.7246736 50.0426307,14.8825237 50.173267,15.0605263 C50.5553325,15.6021729 50.7709914,16.2419992 50.7941642,16.9026316" id="Shape" fill="#000000" fill-rule="nonzero"></path>
          <path d="M32.1990901,28.8289474 C31.0262844,28.95 29.8110241,29.3552632 29.4793483,29.2842105 L29.4422006,29.2842105 C29.0150021,29.1157895 28.6859797,28.9052632 28.8531443,28.7789474 C29.0654168,28.6052632 30.9095345,28.2131579 31.8780279,28.1947368 C32.0982607,28.1763158 33.7539865,28.5342105 34.3536564,28.9052632 C34.4226449,28.9473684 34.534088,29.0289474 34.4518324,29.0421053 C34.3695768,29.0552632 33.255146,28.7315789 32.1964367,28.8394737" id="Shape" fill="#513E2F" fill-rule="nonzero"></path>
          <path d="M33.3506686,30.7973684 C32.4578021,30.2661131 31.3992191,30.0788026 30.3761997,30.2710526 C30.0236365,30.437123 29.7134341,30.680005 29.4687347,30.9815789 C29.4626497,30.9893899 29.4628536,31.0003451 29.4692251,31.007928 C29.4755966,31.0155109 29.4864248,31.0176854 29.4952687,31.0131579 C29.7533369,30.8808572 30.0191521,30.7639819 30.2912907,30.6631579 C30.2912908,31.106439 30.6536218,31.4657894 31.1005798,31.4657894 C31.5475377,31.4657894 31.9098688,31.106439 31.9098688,30.6631579 C31.9108415,30.6456273 31.9108415,30.6280569 31.9098688,30.6105263 C32.3945888,30.637229 32.8749855,30.7157542 33.3427084,30.8447368 C33.3639357,30.8447368 33.3825095,30.8210526 33.3612823,30.8078947" id="Shape" fill="#513E2F" fill-rule="nonzero"></path>
          <path d="M21.7287474,28.8289474 C22.9015531,28.95 24.1168134,29.3552632 24.4484892,29.2842105 L24.4856369,29.2842105 C24.9128354,29.1157895 25.2418578,28.9052632 25.0746932,28.7789474 C24.8624207,28.6052632 23.018303,28.2131579 22.0498096,28.1947368 C21.8295768,28.1763158 20.173851,28.5342105 19.5741811,28.9052632 C19.5051926,28.9473684 19.3937495,29.0289474 19.4760051,29.0421053 C19.5582607,29.0552632 20.6726915,28.7315789 21.7314008,28.8394737" id="Shape" fill="#513E2F" fill-rule="nonzero"></path>
          <path d="M20.5798223,30.7973684 C21.4726888,30.2661131 22.5312718,30.0788026 23.5542912,30.2710526 C23.9068544,30.437123 24.2170568,30.680005 24.4617562,30.9815789 C24.4678412,30.9893899 24.4676373,31.0003451 24.4612658,31.007928 C24.4548943,31.0155109 24.4440661,31.0176854 24.4352222,31.0131579 C24.177154,30.8808572 23.9113388,30.7639819 23.6392002,30.6631579 C23.6392002,31.1064391 23.2768691,31.4657895 22.8299111,31.4657895 C22.3829531,31.4657895 22.0206221,31.1064391 22.0206221,30.6631579 C22.0195745,30.6456294 22.0195745,30.6280548 22.0206221,30.6105263 C21.5359044,30.6372494 21.0555099,30.7157742 20.5877825,30.8447368 C20.5639018,30.8447368 20.5479814,30.8210526 20.5692086,30.8078947" id="Shape" fill="#513E2F" fill-rule="nonzero"></path>
          <path d="M33.9609522,15.1684211 C33.9081103,15.1391312 33.842749,15.1439113 33.7948107,15.1805717 C33.7468724,15.2172322 33.7255925,15.27871 33.7407194,15.3368421 C33.8050784,15.6505788 33.7895752,15.9752777 33.6956115,16.2815789 C33.6834347,16.3380632 33.6396382,16.3825952 33.5830064,16.396075 C33.5263745,16.4095549 33.4669698,16.3895875 33.4302708,16.3447368 C31.4620606,14.4293303 28.8485418,13.3044034 26.0936014,13.1868421 C26.0272291,13.1785786 25.9632672,13.2145386 25.9363268,13.2752632 C25.9093863,13.3359878 25.9258673,13.4070514 25.9768515,13.45 C26.0707119,13.5486896 26.1534554,13.6572243 26.2236183,13.7736842 C26.2544908,13.8278659 26.2484222,13.8953268 26.208366,13.9432325 C26.1683099,13.9911381 26.1025873,14.0095369 26.0431866,13.9894737 C23.6100127,13.15 22.0100085,13.2473684 21.4474862,13.3263158 C21.3978581,13.3335611 21.3550811,13.3647389 21.3332876,13.4095487 C21.3114942,13.4543585 21.3135203,13.5069694 21.3386966,13.55 C21.8498772,14.431353 21.9365146,15.4933436 21.5748498,16.4447368 C21.5521886,16.5128653 21.4840596,16.5555428 21.4122932,16.5465656 C21.3405269,16.5375885 21.2852163,16.4794701 21.2803216,16.4078947 C21.2423246,15.895297 21.0395835,15.4082939 20.701879,15.0184211 C20.6585742,14.9678563 20.5869211,14.9515109 20.5256928,14.9782297 C20.4644645,15.0049485 20.4282063,15.0683843 20.4365383,15.1342105 C20.4625724,15.9660239 20.1586734,16.7747939 19.5901016,17.3868421 L19.5901016,17.3868421 C18.3456538,18.5552632 17.9237622,19.4921053 17.7804782,20.0052632 C17.755384,20.0563854 17.7033024,20.0890414 17.6459751,20.0895988 C17.5886478,20.0901562 17.5359307,20.0585192 17.5098307,20.0078947 C17.4655803,19.9109139 17.4266076,19.8116484 17.3930808,19.7105263 C17.3712047,19.6515032 17.3145296,19.6122788 17.2511236,19.6122788 C17.1877176,19.6122788 17.1310425,19.6515032 17.1091663,19.7105263 C16.0133094,22.2894737 16.7323826,26.8447368 16.9313881,28.4078947 C16.9950698,28.9131579 17.7937452,34.9868421 18.0086712,36.8421053 C18.1493017,38.0710526 18.5605798,40.8131579 18.9983919,41.4631579 C19.6405163,42.4157895 21.9834744,44.3157895 23.161587,45.3210526 C24.3396995,46.3263158 24.8650741,46.0605263 27.0620948,46.0605263 C29.2591155,46.0605263 29.8853195,46.5236842 31.1165002,45.4657895 C32.3476809,44.4078947 34.2369065,43.2947368 35.0966102,41.4973684 C35.6670927,40.3 36.595785,32.7605263 36.7549894,31.4026316 C36.8213246,30.9763158 36.8770461,30.4105263 36.8770461,30.4105263 C38.7344308,18.8315789 35.1443716,15.8184211 33.9582988,15.1473684 M27.1072027,42.1578947 C24.8703809,42.1578947 23.0581041,40.7026316 23.0581041,39.7236842 C23.0581041,38.8605263 24.4644096,38.8026316 26.3271011,38.6447368 C26.5924418,38.6236842 27.552975,38.6184211 27.767901,38.6447368 C29.6916208,38.7815789 31.1589547,38.8526316 31.1589547,39.7342105 C31.1589547,40.7131579 29.346678,42.1710526 27.1072027,42.1710526 M35.0674228,36.3421053 C34.6083834,37.1315789 32.8863225,38.4078947 32.1221413,38.4078947 C31.3579602,38.4078947 31.3871477,38.0552632 30.6096995,37.4868421 C29.3785188,36.5868421 28.7894625,37.3552632 27.0514812,37.3552632 C25.3134998,37.3552632 24.7244435,36.5868421 23.4932628,37.4868421 C22.7158146,38.0552632 22.7450021,38.4078947 21.980821,38.4078947 C21.2166399,38.4078947 19.351295,36.9526316 19.0355396,36.3421053 C18.7701989,35.8657895 18.1678756,32.7421053 17.9211088,31.1631579 C17.6982226,29.2815789 17.6345408,28.0052632 18.0723529,26.9526316 C18.6189547,25.6368421 19.4760051,25.7421053 19.3804824,25.0447368 C19.2849598,24.3473684 18.2660516,22.9394737 19.5370334,22.8578947 C20.8080152,22.7763158 25.4302497,25.7342105 29.033576,25.6763158 C32.6369022,25.6184211 32.7165044,24.3105263 33.3931231,23.6052632 C34.0697419,22.9 36.6010918,25.8973684 36.3118705,28.8289474 C35.714854,34.9447368 35.4256327,35.7315789 35.062116,36.3552632" id="Shape" fill="#513E2F" fill-rule="nonzero"></path>
          <path d="M24.4564494,39.55 C24.4222329,39.5346276 24.3819927,39.5418911 24.3554313,39.568234 C24.3288699,39.5945769 24.3215463,39.634486 24.3370461,39.6684211 C24.5307448,40.0815789 25.1728692,41 27.0222937,41 C28.8717182,41 29.6571265,40.0921053 29.9251206,39.6842105 C29.9441113,39.651665 29.9405579,39.610816 29.9162274,39.5819773 C29.8918968,39.5531385 29.8519816,39.5424645 29.8163309,39.5552632 C28.9276815,39.9087371 27.9797384,40.0926591 27.0222937,40.0973684 C26.1379423,40.1160151 25.2607872,39.9360897 24.4564494,39.5710526" id="Shape" fill="#513E2F"></path>
          <path d="M27.083322,32.1289474 C27.083322,32.1129602 27.0702544,32.1 27.0541346,32.1 C27.0380148,32.1 27.0249471,32.1129602 27.0249471,32.1289474 C26.7941007,32.7657895 25.7274312,35.75 25.7884596,36.0763158 C25.8415277,36.3657895 26.8312484,36.4763158 27.2611003,36.5131579 C27.286771,36.515678 27.3110659,36.5011885 27.320857,36.477519 C27.3306481,36.4538495 27.3236137,36.4266128 27.3035548,36.4105263 C27.056788,36.2184211 26.573868,35.9710526 26.573868,35.5131579 C26.573868,34.9447368 27.083322,32.1342105 27.083322,32.1342105" id="Shape" fill="#513E2F"></path>
        </g>
      </g>
    </g>
  </g>
</svg>
